<?xml version="1.0" encoding="UTF-8" standalone="no"?>
<svg
   xmlns:dc="http://purl.org/dc/elements/1.1/"
   xmlns:cc="http://creativecommons.org/ns#"
   xmlns:rdf="http://www.w3.org/1999/02/22-rdf-syntax-ns#"
   xmlns:svg="http://www.w3.org/2000/svg"
   xmlns="http://www.w3.org/2000/svg"
   xmlns:sodipodi="http://sodipodi.sourceforge.net/DTD/sodipodi-0.dtd"
   xmlns:inkscape="http://www.inkscape.org/namespaces/inkscape"
   enable-background="new 0 0 100 100"
   height="48.937428"
   version="1.1"
   viewBox="0 0 53.056465 48.937428"
   width="53.056465"
   xml:space="preserve"
   id="svg76"
   sodipodi:docname="lobby.svg"
   inkscape:version="0.92.3 (2405546, 2018-03-11)"><metadata
     id="metadata82"><rdf:RDF><cc:Work
         rdf:about=""><dc:format>image/svg+xml</dc:format><dc:type
           rdf:resource="http://purl.org/dc/dcmitype/StillImage" /><dc:title></dc:title></cc:Work></rdf:RDF></metadata><defs
     id="defs80" /><sodipodi:namedview
     pagecolor="#ffffff"
     bordercolor="#666666"
     borderopacity="1"
     objecttolerance="10"
     gridtolerance="10"
     guidetolerance="10"
     inkscape:pageopacity="0"
     inkscape:pageshadow="2"
     inkscape:window-width="3742"
     inkscape:window-height="2112"
     id="namedview78"
     showgrid="false"
     inkscape:zoom="13.50574"
     inkscape:cx="30.501138"
     inkscape:cy="32.127314"
     inkscape:window-x="98"
     inkscape:window-y="48"
     inkscape:window-maximized="1"
     inkscape:current-layer="svg76" /><g
     id="white_exp"
     transform="matrix(0.43333333,0,0,0.43333333,-7.7999999,-3.4666666)"><path
       d="M 72.878,83.072 C 72.954,82.726 73,82.369 73,82 73,79.243 70.757,77 68,77 H 66.043 C 66.469,65.642 70.423,56.112 73.658,48.365 76.398,44.246 78,39.307 78,34 78,19.664 66.336,8 52,8 h -2 v 5 h -7 c -4.74,0 -8.626,3.686 -8.967,8.34 -0.568,0.454 -1.87,1.254 -2.954,1.918 C 25.871,26.453 18,31.281 18,38 c 0,4.739 3.685,8.625 8.338,8.966 C 27.154,49.311 29.381,51 32,51 c 2.831,0 5.21,-1.971 5.838,-4.612 l 4.819,-2.065 c 0.695,0.497 1.451,0.869 2.235,1.131 C 44.178,50.833 39.571,55 34,55 h -2.19 l 2,22 H 32 c -2.757,0 -5,2.243 -5,5 0,0.369 0.046,0.726 0.122,1.072 C 24.229,83.499 22,85.99 22,89 c 0,3.309 2.691,6 6,6 h 44 c 3.309,0 6,-2.691 6,-6 0,-3.01 -2.229,-5.501 -5.122,-5.928 z M 36.176,58.843 c 6.657,-0.972 11.896,-6.335 12.704,-13.044 1.731,-0.262 3.397,-1.054 4.727,-2.385 1.605,-1.605 2.49,-3.74 2.49,-6.01 0,-2.27 -0.884,-4.405 -2.49,-6.01 l -2.828,2.828 c 1.754,1.755 1.754,4.609 0,6.364 -1.755,1.754 -4.609,1.754 -6.364,0 L 43.457,39.628 34,43.681 V 45 c 0,1.103 -0.897,2 -2,2 -1.052,0 -1.907,-0.818 -1.985,-1.851 l 3.234,-2.587 -2.499,-3.123 -4.373,3.499 C 23.917,42.626 22,40.543 22,38 22,33.52 28.993,29.23 33.171,26.668 36.487,24.634 38,23.706 38,22 c 0,-2.757 2.243,-5 5,-5 h 7 v 3 h 4 V 12.09 C 65.198,13.104 74,22.543 74,34 74,46.131 64.131,56 52,56 v 4 C 57.367,60 62.36,58.365 66.506,55.567 64.25,61.81 62.313,68.913 62.035,77 H 37.827 Z M 32,81 h 36 c 0.542,0 1,0.458 1,1 0,0.542 -0.458,1 -1,1 H 32 c -0.542,0 -1,-0.458 -1,-1 0,-0.542 0.458,-1 1,-1 z M 72,91 H 28 c -1.103,0 -2,-0.897 -2,-2 0,-1.103 0.897,-2 2,-2 h 44 c 1.103,0 2,0.897 2,2 0,1.103 -0.897,2 -2,2 z m -27.029,-71.715 2.058,3.43 -5,3 -2.058,-3.43 z m -19.08,16.051 2.219,3.328 -3,2 -2.219,-3.328 z"
       id="path72"
       inkscape:connector-curvature="0" /></g><g
     id="black_exp"
     transform="translate(-13.631487,-43.898291)" /><g
     id="g161"
     transform="matrix(0.45614035,0,0,0.45614035,1.1186279,6.5163734)"><g
       id="white_exp-3" /><g
       id="black_exp-6"><path
         id="path147"
         d="m 31.375,40.219 1.249,1.562 -5.475,4.379 C 27.676,48.357 29.645,50 32,50 c 2.527,0 4.622,-1.884 4.954,-4.321 l 5.849,-2.507 c 2.944,2.45 7.337,2.296 10.097,-0.465 2.924,-2.924 2.924,-7.682 0,-10.606 l 0.707,-0.707 c 1.605,1.605 2.49,3.74 2.49,6.01 0,1.329 -0.311,2.608 -0.884,3.765 v 0 c -0.196,0.396 -0.425,0.775 -0.681,1.139 -0.024,0.034 -0.05,0.066 -0.074,0.1 -0.256,0.353 -0.536,0.692 -0.851,1.007 -0.276,0.276 -0.57,0.523 -0.873,0.752 -0.07,0.053 -0.143,0.101 -0.213,0.151 -0.252,0.178 -0.51,0.343 -0.775,0.492 -1.508,0.843 -3.216,1.203 -4.894,1.057 C 45.944,52.159 40.545,57 34,57 l 2,22 H 64 C 64,69.043 66.698,60.437 69.535,53.178 64.908,57.412 58.751,60 52,60 V 59 C 65.785,59 77,47.785 77,34 77,20.215 65.785,9 52,9 h -1 v 10 h -1 v -4 h -7 c -3.866,0 -7,3.134 -7,7 0,1.831 -16,7.76 -16,16 0,3.38 2.395,6.199 5.58,6.855 z m 14.11,-20.076 1.029,1.715 -5,3 -1.029,-1.715 z m -22.04,18.025 3,-2 1.109,1.664 -3,2 z M 69,80 c 1.1,0 2,0.9 2,2 0,1.1 -0.9,2 -2,2 H 31 c -1.1,0 -2,-0.9 -2,-2 0,-1.1 0.9,-2 2,-2 z m 7,9 c 0,2.2 -1.8,4 -4,4 H 28 c -2.2,0 -4,-1.8 -4,-4 0,-2.2 1.8,-4 4,-4 h 44 c 2.2,0 4,1.8 4,4 z"
         inkscape:connector-curvature="0" /></g></g><g
     id="white_exp-7"
     transform="matrix(-0.43333333,0,0,0.43333333,60.856465,-0.01478264)"><path
       d="M 72.878,83.072 C 72.954,82.726 73,82.369 73,82 73,79.243 70.757,77 68,77 H 66.043 C 66.469,65.642 70.423,56.112 73.658,48.365 76.398,44.246 78,39.307 78,34 78,19.664 66.336,8 52,8 h -2 v 5 h -7 c -4.74,0 -8.626,3.686 -8.967,8.34 -0.568,0.454 -1.87,1.254 -2.954,1.918 C 25.871,26.453 18,31.281 18,38 c 0,4.739 3.685,8.625 8.338,8.966 C 27.154,49.311 29.381,51 32,51 c 2.831,0 5.21,-1.971 5.838,-4.612 l 4.819,-2.065 c 0.695,0.497 1.451,0.869 2.235,1.131 C 44.178,50.833 39.571,55 34,55 h -2.19 l 2,22 H 32 c -2.757,0 -5,2.243 -5,5 0,0.369 0.046,0.726 0.122,1.072 C 24.229,83.499 22,85.99 22,89 c 0,3.309 2.691,6 6,6 h 44 c 3.309,0 6,-2.691 6,-6 0,-3.01 -2.229,-5.501 -5.122,-5.928 z M 36.176,58.843 c 6.657,-0.972 11.896,-6.335 12.704,-13.044 1.731,-0.262 3.397,-1.054 4.727,-2.385 1.605,-1.605 2.49,-3.74 2.49,-6.01 0,-2.27 -0.884,-4.405 -2.49,-6.01 l -2.828,2.828 c 1.754,1.755 1.754,4.609 0,6.364 -1.755,1.754 -4.609,1.754 -6.364,0 L 43.457,39.628 34,43.681 V 45 c 0,1.103 -0.897,2 -2,2 -1.052,0 -1.907,-0.818 -1.985,-1.851 l 3.234,-2.587 -2.499,-3.123 -4.373,3.499 C 23.917,42.626 22,40.543 22,38 22,33.52 28.993,29.23 33.171,26.668 36.487,24.634 38,23.706 38,22 c 0,-2.757 2.243,-5 5,-5 h 7 v 3 h 4 V 12.09 C 65.198,13.104 74,22.543 74,34 74,46.131 64.131,56 52,56 v 4 C 57.367,60 62.36,58.365 66.506,55.567 64.25,61.81 62.313,68.913 62.035,77 H 37.827 Z M 32,81 h 36 c 0.542,0 1,0.458 1,1 0,0.542 -0.458,1 -1,1 H 32 c -0.542,0 -1,-0.458 -1,-1 0,-0.542 0.458,-1 1,-1 z M 72,91 H 28 c -1.103,0 -2,-0.897 -2,-2 0,-1.103 0.897,-2 2,-2 h 44 c 1.103,0 2,0.897 2,2 0,1.103 -0.897,2 -2,2 z m -27.029,-71.715 2.058,3.43 -5,3 -2.058,-3.43 z m -19.08,16.051 2.219,3.328 -3,2 -2.219,-3.328 z"
       id="path72-5"
       inkscape:connector-curvature="0" /></g><path
     style="fill:none;stroke:#000000;stroke-width:1px;stroke-linecap:butt;stroke-linejoin:miter;stroke-opacity:1"
     d="m 31.8029,30.607918 -0.37484,0.263777 0.189734,0.04628 0.111064,-0.152712 z"
     id="path187"
     inkscape:connector-curvature="0" /></svg>